Coordinates
version=1
nRows=20
nColumns=34
inDegrees=yes

Units are S.I. units (second, meters, Newtons, ...)
If the header above contains a line with 'inDegrees', this indicates whether rotational values are in degrees (yes) or radians (no).

endheader
time	pelvis_tilt	pelvis_list	pelvis_rotation	pelvis_tx	pelvis_ty	pelvis_tz	hip_flexion_r	hip_adduction_r	hip_rotation_r	knee_angle_r	ankle_angle_r	subtalar_angle_r	mtp_angle_r	hip_flexion_l	hip_adduction_l	hip_rotation_l	knee_angle_l	ankle_angle_l	subtalar_angle_l	mtp_angle_l	lumbar_extension	lumbar_bending	lumbar_rotation	arm_flex_r	arm_add_r	arm_rot_r	elbow_flex_r	pro_sup_r	arm_flex_l	arm_add_l	arm_rot_l	elbow_flex_l	pro_sup_l
     14.90000000	     -5.54792604	     12.86595934	    172.95526827	      1.74771627	      1.07070568	     -0.56292704	    -30.00000025	     12.81438252	     18.49547371	     53.20023638	    -13.13876963	    -22.87448370	      0.00000000	     34.02570400	    -14.46363736	    -11.75043944	      7.63365524	    -28.28236481	      6.64108040	      0.00000000	    -17.23359003	     19.00620190	     29.00897704	     13.11232363	    -36.55798210	     16.95971699	    126.60822424	     97.78754045	    -49.44070654	    -16.73025785	    -19.68983819	    102.00645450	     88.81843849
     14.90833330	     -6.91819275	     13.83130714	    173.37681119	      1.74464292	      1.07005352	     -0.56179979	    -30.00000025	     13.85384632	     17.95187417	     59.50551393	    -13.64182503	    -24.57669000	      0.00000000	     31.69711179	    -14.83958234	    -11.04120981	      5.91942231	    -28.29809696	      8.67312270	      0.00000000	    -18.19692520	     19.87486877	     29.29030712	     11.23646409	    -37.22367907	     17.53713565	    128.86393051	     97.25471004	    -48.21931689	    -16.41542344	    -20.27603344	    102.68835107	     88.56515874
     14.91666670	     -8.62989698	     14.53364845	    174.38469333	      1.74211253	      1.06743030	     -0.56078542	    -30.00000025	     14.99017366	     17.04947901	     65.94167609	    -14.62969748	    -25.20179482	      0.00000000	     29.01164169	    -14.67315296	     -9.89015672	      4.60438964	    -27.77355723	     10.00768374	      0.00000000	    -19.26891120	     20.41649240	     28.88327864	      9.24471061	    -37.52330464	     18.70787434	    130.06598362	     97.04715164	    -46.35165418	    -16.35315430	    -20.59271915	    103.07486222	     88.38254459
     14.92500000	     -9.73649077	     14.90187289	    174.95182787	      1.74071194	      1.06385256	     -0.56033665	    -29.20351718	     15.61113303	     16.06619345	     72.31916255	    -15.52097577	    -26.21410937	      0.00000000	     27.07900362	    -14.49465083	     -8.53593061	      4.10490319	    -27.26088034	     10.98367012	      0.00000000	    -20.13775607	     20.43604288	     28.76509089	      7.23093558	    -38.16653491	     20.17431320	    132.88846401	     96.70378391	    -44.26123659	    -16.51622036	    -20.72240975	    103.60945711	     88.03948396
     14.93333330	    -10.51023570	     15.31546472	    175.16711312	      1.74057790	      1.06347381	     -0.56026319	    -27.92677818	     16.03654913	     15.20105199	     78.45756520	    -16.53122152	    -27.96967444	      0.00000000	     25.63314291	    -14.55238101	     -6.99708732	      4.38939448	    -26.62186864	     11.27642278	      0.00000000	    -21.04883990	     20.57352065	     29.43608482	      4.55390323	    -38.36054661	     20.14466955	    134.48658447	     95.69673946	    -40.80696242	    -16.84698746	    -19.28832482	    103.14317493	     87.08061881
     14.94166670	    -11.03917494	     15.35847068	    175.56600400	      1.74034233	      1.05541798	     -0.56084765	    -26.00777267	     16.13827807	     13.91020967	     84.36615021	    -17.91207523	    -28.81214665	      0.00000000	     24.57782342	    -14.19419604	     -5.11614706	      5.37351593	    -25.49534515	     11.50714402	      0.00000000	    -21.37681905	     20.00092284	     28.93523421	      2.51954886	    -37.66725854	     19.11216839	    132.88164301	     94.94130853	    -38.05597048	    -17.17876333	    -18.89209763	    103.79018552	     86.24443890
     14.95000000	    -11.49909911	     15.13002174	    175.98112127	      1.74051920	      1.05011467	     -0.56179607	    -23.75914699	     15.94743937	     12.70186780	     89.76198004	    -19.70432456	    -28.19920621	      0.00000000	     23.40793406	    -13.56404532	     -3.74394327	      6.68643687	    -24.37676996	     11.73601925	      0.00000000	    -21.67717536	     18.93185089	     27.77314048	      1.82072078	    -36.97212837	     17.92651738	    129.74949584	     94.54534205	    -35.08431092	    -17.17587909	    -18.80540730	    104.11699279	     85.86347630
     14.95833330	    -11.78670333	     14.68179733	    176.57937582	      1.74099716	      1.04902747	     -0.56252300	    -21.15409566	     15.60007424	     11.36697951	     94.57964088	    -21.89114671	    -27.04679438	      0.00000000	     22.28649498	    -12.69294931	     -2.91987904	      8.17336625	    -23.18404630	     11.69844071	      0.00000000	    -21.84424591	     17.58778678	     26.13184445	      1.87912928	    -35.54255353	     15.67763154	    123.94142872	     94.14837507	    -31.55677308	    -17.15444591	    -18.29346316	    103.76020503	     85.61113234
     14.96666670	    -11.73440464	     13.96230806	    177.32289713	      1.74194628	      1.04137473	     -0.56314181	    -18.25549869	     15.02976209	      9.86431483	     99.31501982	    -25.30946535	    -26.28872329	      0.00000000	     21.59191958	    -11.56134050	     -2.55538815	     10.02879203	    -21.86916856	     11.30694185	      0.00000000	    -21.74685648	     15.82397643	     24.18276978	      2.69323453	    -33.73168090	     12.85988784	    116.76112008	     93.77834711	    -27.63042110	    -17.35458604	    -17.41959976	    103.36633256	     85.48391586
     14.97500000	    -11.59484400	     12.92290431	    178.46945211	      1.74390672	      1.03622838	     -0.56368615	    -14.90264268	     14.34671068	      8.06362186	    103.58454332	    -28.03263577	    -24.08437324	      0.00000000	     20.80555651	    -10.05814283	     -3.13844932	     11.92472447	    -21.01342253	      9.97981743	      0.00000000	    -21.72714023	     13.73781341	     21.79558905	      4.10300598	    -31.70483613	     10.04393974	    109.83209070	     93.51462308	    -23.34566105	    -17.86912571	    -16.32093005	    102.93140224	     85.48080126
     14.98333330	    -11.14597130	     11.85040495	    180.03021910	      1.74695761	      1.03095114	     -0.56382503	    -11.04561981	     13.73325749	      5.99242568	    108.07708241	    -28.93898106	    -20.69409222	      0.00000000	     20.21883260	     -8.52670137	     -3.88120038	     14.06477619	    -20.41987552	      7.01946604	      0.00000000	    -21.58920149	     11.87801528	     18.87854374	      5.68466284	    -29.35929557	      7.71901592	    103.10201508	     93.34493409	    -18.52232597	    -18.59119115	    -14.43421590	    101.53991959	     85.55125351
     14.99166670	    -10.96188724	     10.58517762	    181.86399950	      1.75124317	      1.02840128	     -0.56345490	     -7.24942973	     12.70619839	      3.87319865	    112.09132685	    -28.98688397	    -17.10467259	      0.00000000	     19.16862381	     -6.81074208	     -4.70849890	     16.69918407	    -19.33704317	      2.35937237	      0.00000000	    -22.02763308	      9.85216472	     15.49533855	      6.77901501	    -27.17156989	      5.87645577	     97.17508762	     93.21854501	    -13.27316195	    -19.34637126	    -12.49880691	     99.93823765	     85.58777237
     15.00000000	    -10.62347540	      9.05502885	    183.44545641	      1.75647561	      1.02684007	     -0.56308137	     -3.02342860	     11.03917386	      2.16468517	    115.84831803	    -29.58714543	    -14.27904029	      0.00000000	     18.14362755	     -4.90650852	     -5.01854689	     19.98553468	    -16.96444543	     -3.78340618	      0.00000000	    -22.57198760	      7.70216118	     11.91828207	      7.16481619	    -25.13003666	      4.64376417	     92.49127304	     93.10964235	     -7.60816263	    -20.13260701	     -9.98949437	     97.31519152	     85.42562664
     15.00833330	    -10.55294894	      7.33452605	    184.91394971	      1.76193338	      1.02276646	     -0.56246563	      1.14914788	      8.79716418	      0.92610494	    119.80984817	    -30.41330819	    -11.65991431	      0.00000000	     16.90090770	     -2.81510157	     -4.56646614	     23.65526591	    -13.46457745	     -9.64227929	      0.00000000	    -23.88398419	      5.58927046	      7.80461655	      6.78960788	    -22.82771420	      3.61658820	     89.51734796	     92.93633432	     -2.36151740	    -21.05681070	     -8.51995313	     95.55118989	     85.17653092
     15.01666670	    -10.06697445	      5.03356996	    185.77897473	      1.76628805	      1.01969695	     -0.56279660	      6.14159940	      5.76841339	      0.45362234	    122.59498910	    -28.82072854	     -9.62191318	      0.00000000	     15.84390568	     -0.13041730	     -4.00196375	     27.13341808	    -11.01495482	    -16.28554128	      0.00000000	    -24.35465695	      2.82246967	      4.54131938	      4.22834640	    -21.00824723	      2.18063065	     88.13359674	     92.49786831	      3.72066998	    -22.41295663	     -5.38962590	     92.90976986	     84.08781574
     15.02500000	     -9.99983561	      3.30036941	    186.56515041	      1.77025358	      1.01735486	     -0.56215040	     10.76204579	      3.02892379	      0.61320577	    125.33178107	    -27.44476664	     -7.87607282	      0.00000000	     14.41990144	      1.79775256	     -2.91127415	     30.42267155	     -8.58173813	    -21.78706113	      0.00000000	    -25.67973375	      0.89422242	      1.64924163	      0.58096214	    -19.51220139	      0.02513292	     88.54036893	     91.73711617	      9.78538604	    -23.55744155	     -2.06804920	     90.82058061	     82.35077122
     15.03333330	    -10.17480984	      2.05548627	    187.04705299	      1.77423148	      1.01244444	     -0.56146832	     15.57235505	      0.88026346	      1.37495188	    128.25480213	    -25.40923155	     -6.67847170	      0.00000000	     12.92732714	      3.06461095	     -1.91394145	     33.74214278	     -5.86646765	    -25.35169026	      0.00000000	    -27.32962846	     -0.27878284	     -0.51219538	     -3.89030080	    -18.40555581	     -2.40598690	     90.54592108	     90.59860575	     15.81252452	    -24.25971519	      1.33200194	     89.24297432	     79.89387135
     15.04166670	    -10.20003126	      0.50100840	    187.65272122	      1.77772248	      1.00849555	     -0.56117430	     20.52121790	     -1.56857887	      2.16396943	    130.04784361	    -20.63161221	     -5.91779710	      0.00000000	     11.10767690	      4.54687630	     -1.07953025	     36.13355558	     -3.54975982	    -27.47445510	      0.00000000	    -28.48559581	     -1.65164226	     -3.47723158	     -8.05421390	    -17.26483636	     -3.67007228	     92.16462373	     89.81071009	     20.38010274	    -25.24855207	      3.55025181	     88.87076756	     78.24537314
     15.05000000	    -10.70752649	     -0.61837190	    188.57910029	      1.78236257	      1.01238783	     -0.56043405	     24.80748413	     -3.48593070	      2.27017329	    130.32784154	    -14.54826326	     -6.03486452	      0.00000000	      8.17076471	      5.30419551	     -0.32312625	     37.07489110	     -2.24055604	    -28.32465360	      0.00000000	    -30.20838552	     -2.26877329	     -5.67377734	    -12.50308737	    -15.78325649	     -5.72726052	     94.26605100	     88.65687521	     25.19809219	    -25.75417000	      6.77354301	     88.27741455	     75.98799257
     15.05833330	    -10.70866642	     -1.23890993	    189.58927194	      1.78732039	      1.01046137	     -0.55956439	     29.29744121	     -4.84427032	      2.09830059	    129.38101557	     -6.41328461	     -5.74294834	      0.00000000	      5.96863146	      5.43991374	      0.28068582	     38.20636116	     -0.77932884	    -28.80094652	      0.00000000	    -31.02516756	     -2.10372162	     -8.76457612	    -15.76217489	    -14.86266588	     -5.97324056	     95.53464868	     88.46653769	     26.76081377	    -26.70451141	      7.62815897	     90.27180884	     75.63798118
